<?xml version="1.0"?>
<svg xmlns="http://www.w3.org/2000/svg" xmlns:xlink="http://www.w3.org/1999/xlink" version="1.1" id="Capa_1" x="0px" y="0px" viewBox="0 0 512.001 512.001" style="enable-background:new 0 0 512.001 512.001;" xml:space="preserve" width="512px" height="512px"><g><g>
	<g>
		<path d="M442.194,59.994l34.39-34.389c4.29-4.29,5.572-10.741,3.252-16.345C477.513,3.655,472.044,0,465.978,0H315.994    c-8.283,0-14.998,6.715-14.998,14.998c0,12.923,0,93.51,0,104.989h-83.063c5.122-8.832,8.071-19.073,8.071-29.997    c0-33.081-26.913-59.994-59.994-59.994S106.016,56.91,106.016,89.99c0,10.924,2.949,21.165,8.071,29.997h-8.071    c-41.351,0-74.992,33.641-74.992,74.992v90.99c0,24.81,20.185,44.995,44.995,44.995c3.021,0,5.971-0.299,8.828-0.869    L62.532,455.395c-6.277,23.602,7.534,48.069,31.078,54.806c27.993,8.082,52.376-12.538,55.999-32.301l16.401-89.511l16.401,89.511    c0.088,0.478,0.199,0.952,0.332,1.42c6.698,23.432,31.433,37.843,55.632,30.891c23.579-6.746,37.39-31.215,31.113-54.816    l-28.486-159.947v-85.47h59.994v286.97c0,8.283,6.715,14.998,14.998,14.998c8.283,0,14.998-6.715,14.998-14.998V207.398    c17.457-6.191,29.997-22.863,29.997-42.416s-12.54-36.224-29.997-42.416v-2.58h134.986c6.066,0,11.535-3.655,13.857-9.259    c2.321-5.604,1.038-12.056-3.252-16.345L442.194,59.994z M166.01,59.994c16.54,0,29.997,13.457,29.997,29.997    c0,16.54-13.457,29.997-29.997,29.997c-16.54,0-29.997-13.457-29.997-29.997C136.013,73.45,149.469,59.994,166.01,59.994z     M330.993,164.983c0,8.27-6.729,14.998-14.999,14.998h-89.99c-8.283,0-14.998,6.715-14.998,14.998v101.792    c0,0.882,0.078,1.762,0.232,2.63c30.515,171.339,28.869,162.32,29.185,163.425c2.273,7.95-2.348,16.269-10.313,18.548    c-7.929,2.277-15.898-2.307-18.347-9.723l-31-169.183c-1.305-7.122-7.512-12.295-14.752-12.295s-13.448,5.173-14.752,12.295    l-31,169.185c-2.474,7.519-10.429,12.007-18.361,9.717c-7.951-2.275-12.571-10.594-10.298-18.544    c0.315-1.102-1.4,8.306,29.185-163.425c0.155-0.868,0.232-1.748,0.232-2.63V194.979c0-8.283-6.715-14.998-14.998-14.998    s-14.998,6.715-14.998,14.998v90.99c0,8.27-6.728,14.998-14.998,14.998s-14.998-6.728-14.998-14.998v-90.99    c0-24.81,20.185-44.995,44.995-44.995h209.978C324.265,149.984,330.993,156.712,330.993,164.983z M330.992,89.99V29.997h98.777    l-19.392,19.391c-5.857,5.857-5.857,15.354,0,21.212l19.392,19.391H330.992z" data-original="#000000" class="active-path" data-old_color="#000000" fill="#3BC59B"/>
	</g>
</g></g> </svg>
